<svg id="Слой_1" data-name="Слой 1" xmlns="http://www.w3.org/2000/svg" viewBox="0 0 876.5 364.29">
  <defs>
	<style>
	  .cls-1 {
		fill: #fbb03b;
	  }

	  .cls-2 {
		stroke: #000;
		stroke-miterlimit: 10;
	  }
	</style>
  </defs>
  <path class="cls-1" d="M331.39,359c3,1.16,5.74,2.32,8.56,3.26A99.11,99.11,0,0,1,360,371.33,101.42,101.42,0,0,1,373.41,381c3.26,2.8,5.85,6.37,8.72,9.6A45.69,45.69,0,0,1,390,402.93c1.25,2.89,2.62,5.72,3.7,8.66a78.72,78.72,0,0,1,2.39,8.12c.71,2.85,1.07,5.79,1.85,8.62a51.72,51.72,0,0,1,1.39,14.5c-.05,5.45-.2,10.91-.35,16.36a43.13,43.13,0,0,1-.38,5.33c-.52,3.37-1.13,6.74-1.83,10.08-.48,2.3-1.09,4.58-1.77,6.83-.92,3.11-1.88,6.22-3,9.27-1.58,4.45-3.14,8.91-5,13.25-1.74,4.1-3.72,8.11-5.78,12.07-1.37,2.62-3.09,5.07-4.61,7.62s-2.83,5-4.33,7.47c-2.36,3.88-4.83,7.69-7.18,11.58-1.92,3.18-3.74,6.42-5.55,9.52H222.21V309.75h84.42V233.91c-6.31,1.46-12.57,2.9-18.83,4.36-4.73,1.1-9.52,2-14.19,3.37-8.78,2.53-17.51,5.23-26.2,8-6.35,2.05-12.63,4.28-18.89,6.57q-11.88,4.35-23.66,8.94-16.79,6.56-33.49,13.32c-5.16,2.07-10.29,4.23-15.4,6.43-6.67,2.86-13.31,5.8-19.95,8.72q-7.71,3.38-15.39,6.78-8.75,3.9-17.46,7.84a13.24,13.24,0,0,0-1.52,1h83.63v242h-117v-1.86c0-12.85-.45-25.72.09-38.54,1.38-32.44.35-64.88.58-97.32s0-65.08.06-97.62q.12-62.38.35-124.76v-2.41c.52,0,.92-.11,1.32-.11,13.3-.13,26.6-.28,39.91-.36,26.75-.14,53.49-.3,80.24-.34,12.34,0,24.68.2,37,.34,7.54.09,15.08.23,22.62.36q9,.15,17.93.36c3.94.09,7.88.16,11.82.37,5.57.3,11.16.53,16.71,1.11A145.32,145.32,0,0,1,330.76,198a68.1,68.1,0,0,1,16.18,8.27c2.3,1.6,4.74,3,6.86,4.82a80.32,80.32,0,0,1,6.82,6.74,108.52,108.52,0,0,1,7.08,8.23,59.31,59.31,0,0,1,4.4,7.21c1.81,3.3,3.66,6.6,5.15,10.05a68.82,68.82,0,0,1,2.95,9c.86,3.17,1.52,6.4,2.2,9.62a53.14,53.14,0,0,1,1.37,7.65c.31,5.24.47,10.52.36,15.77A65,65,0,0,1,383,297.09a96.43,96.43,0,0,1-3.93,13.73,64.2,64.2,0,0,1-8.94,16.58c-2.88,3.79-6.13,7.31-9.36,10.83a52.4,52.4,0,0,1-6.24,5.86,99.44,99.44,0,0,1-8.48,5.9C341.32,353,336.48,355.87,331.39,359Z" transform="translate(-67.5 -187.92)"/>
  <g>
	<path class="cls-1" d="M461.25,525.15Q438,498.29,438,449.83V331h61V447.67q0,23.77,7.1,34.57t20.54,10.81q13.42,0,20.53-10.81t7.1-34.57V331h59.93V449.83q0,48.46-23.25,75.32T526.08,552Q484.49,552,461.25,525.15Z" transform="translate(-67.5 -187.92)"/>
	<path class="cls-1" d="M642.05,331h61V490.58h81.62v56.48H642.05Z" transform="translate(-67.5 -187.92)"/>
	<path class="cls-1" d="M801.42,331h61V490.58H944v56.48H801.42Z" transform="translate(-67.5 -187.92)"/>
  </g>
  <g>
	<path class="cls-1" d="M447.74,232.49H419.45V207.24H508.6v25.25H480.31v71.35H447.74Z" transform="translate(-67.5 -187.92)"/>
	<path class="cls-1" d="M558.41,279.55h-8.83v24.29H517v-96.6h46.51q13.38,0,23.32,4.41a35.71,35.71,0,0,1,16,50.1A33.22,33.22,0,0,1,589.33,274l20.28,29.81H574.84Zm13-44.23q-3.32-3-9.94-3H549.58V255h11.87q6.63,0,9.94-3c2.2-2,3.31-4.76,3.31-8.35S573.59,237.3,571.39,235.32Z" transform="translate(-67.5 -187.92)"/>
	<path class="cls-1" d="M700.14,279.27v24.57H619.82v-96.6h78.52V231.8h-46.5v11.32h40.85v23.46H651.84v12.69Z" transform="translate(-67.5 -187.92)"/>
	<path class="cls-1" d="M807.92,207.24v96.6H781.14L744.44,260v43.89H712.7v-96.6h26.77l36.7,43.88V207.24Z" transform="translate(-67.5 -187.92)"/>
	<path class="cls-1" d="M823.65,207.24h47.6q16.15,0,28.5,5.86a44.61,44.61,0,0,1,19.18,16.77q6.84,10.9,6.84,25.67t-6.84,25.66A44.61,44.61,0,0,1,899.75,298q-12.35,5.86-28.5,5.87h-47.6Zm46.23,71.2q10.49,0,16.76-6t6.28-16.9q0-10.9-6.28-16.91t-16.76-6H856.21v45.81Z" transform="translate(-67.5 -187.92)"/>
  </g>
  <line class="cls-2" x1="1.5" y1="1.08" x2="0.5" y2="361.08"/>
</svg>
